<?xml version="1.0" encoding="UTF-8" standalone="no"?>
<!-- Created with Inkscape (http://www.inkscape.org/) -->

<svg
   width="27.940878mm"
   height="23.468849mm"
   viewBox="0 0 27.940877 23.468848"
   version="1.1"
   id="svg1"
   xml:space="preserve"
   xmlns="http://www.w3.org/2000/svg"
   xmlns:svg="http://www.w3.org/2000/svg"><defs
     id="defs1" /><g
     id="layer1"
     transform="translate(-66.457615,-117.21805)"><path
       style="fill:#ffffff;fill-opacity:1;stroke-width:0.0345576"
       d="m 77.666551,132.37031 c 0.0015,-0.24508 0.275919,-0.47538 0.531355,-0.4761 l 4.429958,-0.0124 c 0.332134,0.0507 0.652981,0.3165 0.653379,0.65817 l 0.0095,8.14692 6.002614,-0.005 0.0886,-0.0249 c 0.436877,-0.12313 0.792344,-0.45812 0.792741,-0.88022 l 0.01013,-10.78455 4.213664,-0.005 -5.72128,-4.75455 -0.02186,-5.92415 c -5.93e-4,-0.18248 -0.187108,-0.35637 -0.359905,-0.35657 l -3.497852,-0.004 c -0.164475,-2e-4 -0.304739,0.16115 -0.366041,0.32348 l -0.02073,0.0549 -0.0091,2.35072 -4.174426,-3.45901 -13.769683,11.76945 4.169637,0.005 0.04625,10.95828 c 0.0016,0.38273 0.435333,0.721 0.831523,0.72192 l 6.107764,0.0141 z"
       id="path12" /></g><style
     type="text/css"
     id="style2">
	.st0{fill:#1DA1F2;}
	.st1{fill:#FFFFFF;}
</style></svg>
