<?xml version="1.0" encoding="UTF-8" standalone="no"?>
<svg width="105.603" height="88.701" viewBox="0 0 27.941 23.469" xml:space="preserve" xmlns="http://www.w3.org/2000/svg" fill="red">
    <path class="img" d="M11.209 15.152c.001-.245.275-.475.53-.476l4.43-.012c.333.05.654.316.654.658l.01 8.147 6.002-.005.089-.025c.437-.123.792-.458.793-.88l.01-10.785 4.213-.005-5.72-4.754-.023-5.924c0-.183-.187-.357-.36-.357L18.34.73c-.165 0-.305.161-.366.323l-.021.055-.01 2.351L13.769 0-.001 11.77l4.17.004.047 10.959c.001.383.435.72.831.722l6.108.014z"/>
</svg>