<?xml version="1.0" encoding="UTF-8" standalone="no"?>
<!-- Created with Inkscape (http://www.inkscape.org/) -->

<svg
   width="13.260665mm"
   height="13.260665mm"
   viewBox="0 0 13.260665 13.260665"
   version="1.1"
   id="svg1"
   xml:space="preserve"
   sodipodi:docname="icon_sett.svg"
   inkscape:version="1.3.2 (091e20ef0f, 2023-11-25, custom)"
   xmlns:inkscape="http://www.inkscape.org/namespaces/inkscape"
   xmlns:sodipodi="http://sodipodi.sourceforge.net/DTD/sodipodi-0.dtd"
   xmlns="http://www.w3.org/2000/svg"
   xmlns:svg="http://www.w3.org/2000/svg"><sodipodi:namedview
     id="namedview1"
     pagecolor="#505050"
     bordercolor="#ffffff"
     borderopacity="1"
     inkscape:showpageshadow="0"
     inkscape:pageopacity="0"
     inkscape:pagecheckerboard="1"
     inkscape:deskcolor="#d1d1d1"
     inkscape:document-units="mm"
     inkscape:zoom="4.9269669"
     inkscape:cx="75.096912"
     inkscape:cy="30.24173"
     inkscape:window-width="1920"
     inkscape:window-height="1125"
     inkscape:window-x="0"
     inkscape:window-y="27"
     inkscape:window-maximized="1"
     inkscape:current-layer="svg1" /><defs
     id="defs1" /><style
     type="text/css"
     id="style2">
	.st0{fill:#1DA1F2;}
	.st1{fill:#FFFFFF;}
</style><path
     style="fill:#ffffff;fill-opacity:1;fill-rule:evenodd;stroke:none;stroke-width:0.124929;stroke-linecap:butt;stroke-linejoin:miter;stroke-miterlimit:4;stroke-dasharray:none;stroke-opacity:1"
     d="m 7.6158201,12.704566 0.275814,-1.585893 A 4.670742,4.670742 0 0 0 9.4075056,10.371145 L 10.836297,11.15367 12.065267,9.6127208 10.959718,8.3659733 A 4.670742,4.670742 0 0 0 11.293015,6.7841507 L 12.86067,6.1278149 12.42219,4.2061812 10.674948,4.2975086 A 4.670742,4.670742 0 0 0 9.7097138,3.1150837 L 10.193477,1.4114687 8.4175468,0.55615325 7.3730222,2.0163598 A 4.670742,4.670742 0 0 0 6.6304072,1.9512229 4.670742,4.670742 0 0 0 5.8853224,2.0133744 L 4.842942,0.55609897 3.0671878,1.4112516 3.5516028,3.1173093 A 4.670742,4.670742 0 0 0 2.5836141,4.2972915 L 0.8384471,4.2060998 0.3999943,6.1277335 1.9653834,6.783255 A 4.670742,4.670742 0 0 0 2.3002957,8.3665568 L 1.1953838,9.6126394 2.4241915,11.153589 3.8534581,10.370738 a 4.670742,4.670742 0 0 0 1.514908,0.743456 l 0.276479,1.59029 z M 6.6304072,9.118386 A 2.4963432,2.4963432 0 0 1 4.1339946,6.6219869 2.4963432,2.4963432 0 0 1 6.6304072,4.1257371 2.4963432,2.4963432 0 0 1 9.126657,6.6219869 2.4963432,2.4963432 0 0 1 6.6304072,9.118386 Z"
     id="circle909"
     inkscape:connector-curvature="0" /></svg>
