<?xml version="1.0" encoding="UTF-8" standalone="no"?>
<!-- Created with Inkscape (http://www.inkscape.org/) -->

<svg
   width="13.260665mm"
   height="13.260665mm"
   viewBox="0 0 13.260665 13.260665"
   version="1.1"
   id="svg1"
   xml:space="preserve"
   sodipodi:docname="icon_fistbump.svg"
   inkscape:version="1.3.2 (091e20ef0f, 2023-11-25, custom)"
   xmlns:inkscape="http://www.inkscape.org/namespaces/inkscape"
   xmlns:sodipodi="http://sodipodi.sourceforge.net/DTD/sodipodi-0.dtd"
   xmlns="http://www.w3.org/2000/svg"
   xmlns:svg="http://www.w3.org/2000/svg"><sodipodi:namedview
     id="namedview1"
     pagecolor="#505050"
     bordercolor="#ffffff"
     borderopacity="1"
     inkscape:showpageshadow="0"
     inkscape:pageopacity="0"
     inkscape:pagecheckerboard="1"
     inkscape:deskcolor="#d1d1d1"
     inkscape:document-units="mm"
     inkscape:zoom="1.1283896"
     inkscape:cx="125.39995"
     inkscape:cy="35.44875"
     inkscape:window-width="1920"
     inkscape:window-height="1129"
     inkscape:window-x="0"
     inkscape:window-y="27"
     inkscape:window-maximized="1"
     inkscape:current-layer="svg1" /><defs
     id="defs1" /><style
     type="text/css"
     id="style2">
	.st0{fill:#1DA1F2;}
	.st1{fill:#FFFFFF;}
</style><g
     id="g137"
     transform="translate(-94.963959,-2.5334411)"><circle
       r="6.2996035"
       cy="9.1637735"
       cx="101.59429"
       id="circle125"
       style="fill:#603d23;fill-opacity:1;fill-rule:evenodd;stroke:#ffffff;stroke-width:0.661458;stroke-linecap:round;stroke-linejoin:round;stroke-miterlimit:4;stroke-dasharray:none;stroke-opacity:1" /><path
       id="path117"
       style="color:#000000;fill:#ffffff;fill-opacity:1;stroke-width:0.105289;stroke-linecap:round;stroke-linejoin:round;-inkscape-stroke:none;paint-order:markers stroke fill"
       d="m 98.94344,11.272858 a 0.42115919,0.42115919 0 0 0 -0.421161,0.421161 0.42115919,0.42115919 0 0 0 0.421161,0.421158 h 3.60102 a 0.42115919,0.42115919 0 0 0 0.42116,-0.421158 0.42115919,0.42115919 0 0 0 -0.42116,-0.421161 z m 1.80061,-5.1474764 c -1.262989,0 -2.296009,1.0328148 -2.296009,2.2958111 0,1.2629965 1.03302,2.2960163 2.296009,2.2960163 1.263,0 2.2958,-1.0330198 2.2958,-2.2960163 0,-1.2629963 -1.0328,-2.2958111 -2.2958,-2.2958111 z m 0,0.8423184 c 0.80777,0 1.45349,0.6457183 1.45349,1.4534927 0,0.8077745 -0.64572,1.4536977 -1.45349,1.4536977 -0.807766,0 -1.45369,-0.6459232 -1.45369,-1.4536977 0,-0.8077744 0.645924,-1.4534927 1.45369,-1.4534927 z m 3.57532,-1.0539263 a 0.42115919,0.42115919 0 0 0 -0.42116,0.4211593 v 5.65768 a 0.42115919,0.42115919 0 0 0 0.42116,0.42116 0.42115919,0.42115919 0 0 0 0.42117,-0.42116 v -5.65768 a 0.42115919,0.42115919 0 0 0 -0.42117,-0.4211593 z" /></g></svg>
