<?xml version="1.0" encoding="UTF-8" standalone="no"?>
<!-- Created with Inkscape (http://www.inkscape.org/) -->

<svg
   width="13.260665mm"
   height="13.260665mm"
   viewBox="0 0 13.260665 13.260665"
   version="1.1"
   id="svg1"
   xml:space="preserve"
   sodipodi:docname="icon_lettersearch.svg"
   inkscape:version="1.3.2 (091e20ef0f, 2023-11-25, custom)"
   xmlns:inkscape="http://www.inkscape.org/namespaces/inkscape"
   xmlns:sodipodi="http://sodipodi.sourceforge.net/DTD/sodipodi-0.dtd"
   xmlns="http://www.w3.org/2000/svg"
   xmlns:svg="http://www.w3.org/2000/svg"><sodipodi:namedview
     id="namedview1"
     pagecolor="#505050"
     bordercolor="#ffffff"
     borderopacity="1"
     inkscape:showpageshadow="0"
     inkscape:pageopacity="0"
     inkscape:pagecheckerboard="1"
     inkscape:deskcolor="#d1d1d1"
     inkscape:document-units="mm"
     inkscape:zoom="0.79789194"
     inkscape:cx="17.546236"
     inkscape:cy="26.319354"
     inkscape:window-width="1920"
     inkscape:window-height="1129"
     inkscape:window-x="0"
     inkscape:window-y="27"
     inkscape:window-maximized="1"
     inkscape:current-layer="svg1" /><defs
     id="defs1" /><style
     type="text/css"
     id="style2">
	.st0{fill:#1DA1F2;}
	.st1{fill:#FFFFFF;}
</style><circle
     r="6.2996035"
     cy="6.6303325"
     cx="6.6303315"
     id="circle120"
     style="fill:#603d23;fill-opacity:1;fill-rule:evenodd;stroke:#ffffff;stroke-width:0.661458;stroke-linecap:round;stroke-linejoin:round;stroke-miterlimit:4;stroke-dasharray:none;stroke-opacity:1" /><path
     id="text1"
     style="font-size:10.0964px;font-family:Bagnard;-inkscape-font-specification:'Bagnard, Normal';font-variant-ligatures:no-common-ligatures;text-align:center;text-anchor:middle;stroke-width:0.0674357;stroke-linecap:round;stroke-linejoin:round;paint-order:markers stroke fill;fill:#ffffff;fill-opacity:1"
     d="M 1.8511357,9.1048882 H 3.7770952 L 3.0811602,8.5707986 3.5505118,7.4136044 h 2.0068825 l 0.4046133,1.0843638 -0.7849502,0.60692 H 7.8717822 L 7.2729542,8.5869831 5.1527806,3.2218106 H 4.7238904 L 2.5308861,8.4494146 Z M 4.5944142,4.8402639 5.3874563,6.9523453 H 3.7366339 Z m 5.277585,1.5051613 c 0.0081,0.7040273 -0.7606735,0.7930422 -1.3433171,0.9306107 -0.5017206,0.121384 -0.9791639,0.4531669 -0.9791639,1.0196256 0,0.364152 0.2346753,0.9225184 0.9872567,0.9225184 0.5340894,0 1.0924563,-0.2994139 1.3433163,-0.7363963 l 0.2023058,0.6231046 h 1.327132 L 10.794517,8.4655991 c 0,-0.3722443 0.0081,-1.6184533 0.0081,-1.9502362 0,-1.0843638 -0.744489,-1.4080545 -1.4485159,-1.4080545 h -0.129476 c -0.8335042,0 -1.5456235,0.6473813 -1.5456235,1.124825 0,0.3722444 0.1942147,0.6554737 0.5502739,0.6554737 0.2913221,0 0.5583667,-0.2508602 0.5583667,-0.5664587 0,-0.2751371 -0.089015,-0.4774437 -0.4369827,-0.6150123 0.1132921,-0.1618453 0.4936288,-0.2103989 0.7363969,-0.2103989 0.4046134,0 0.7606738,0.2994139 0.7930418,0.849688 z M 8.9252035,8.6112599 c -0.2103994,0 -0.412706,-0.1456608 -0.412706,-0.3884288 0,-0.3075061 0.1618453,-0.4936283 0.5988282,-0.6878427 C 9.3783703,7.429789 9.6777842,7.2760359 9.8719992,7.0251757 l -0.01618,0.9791642 c -0.17803,0.4288901 -0.6392898,0.60692 -0.9306113,0.60692 z" /></svg>
