<?xml version="1.0" encoding="UTF-8" standalone="no"?>
<!-- Created with Inkscape (http://www.inkscape.org/) -->

<svg
   width="13.260665mm"
   height="13.260665mm"
   viewBox="0 0 13.260665 13.260665"
   version="1.1"
   id="svg1"
   xml:space="preserve"
   sodipodi:docname="icon_glyphs.svg"
   inkscape:version="1.3.2 (091e20ef0f, 2023-11-25, custom)"
   xmlns:inkscape="http://www.inkscape.org/namespaces/inkscape"
   xmlns:sodipodi="http://sodipodi.sourceforge.net/DTD/sodipodi-0.dtd"
   xmlns="http://www.w3.org/2000/svg"
   xmlns:svg="http://www.w3.org/2000/svg"><sodipodi:namedview
     id="namedview1"
     pagecolor="#505050"
     bordercolor="#ffffff"
     borderopacity="1"
     inkscape:showpageshadow="0"
     inkscape:pageopacity="0"
     inkscape:pagecheckerboard="1"
     inkscape:deskcolor="#d1d1d1"
     inkscape:document-units="mm"
     inkscape:zoom="1.1283896"
     inkscape:cx="479.88744"
     inkscape:cy="35.448749"
     inkscape:window-width="1920"
     inkscape:window-height="1129"
     inkscape:window-x="0"
     inkscape:window-y="27"
     inkscape:window-maximized="1"
     inkscape:current-layer="svg1" /><defs
     id="defs1" /><style
     type="text/css"
     id="style2">
	.st0{fill:#1DA1F2;}
	.st1{fill:#FFFFFF;}
</style><g
     id="g136"
     transform="translate(-112.30269,4.6203022)"><circle
       r="6.2996035"
       cy="2.0100303"
       cx="118.93302"
       id="circle122"
       style="fill:#603d23;fill-opacity:1;fill-rule:evenodd;stroke:#ffffff;stroke-width:0.661458;stroke-linecap:round;stroke-linejoin:round;stroke-miterlimit:4;stroke-dasharray:none;stroke-opacity:1" /><path
       id="path75"
       style="fill:#ffffff;fill-opacity:1;stroke-width:0.134806"
       d="m 118.96282,-1.9899697 -0.54067,0.6955182 c -1.61469,0.2465822 -2.85411,1.64340696 -2.85411,3.3263398 0,1.6881028 1.24715,3.0878509 2.86911,3.3280711 l 0.52567,0.6500709 0.49229,-0.653944 c 1.60918,-0.2513264 2.8429,-1.6451862 2.8429,-3.324198 0,-1.67748121 -1.23151,-3.0703762 -2.83853,-3.3235794 z m -0.0298,0.9655232 c 1.68972,0 3.05621,1.36662284 3.05621,3.0563348 0,1.6897128 -1.36649,3.0561705 -3.05621,3.0561705 -1.68971,0 -3.05617,-1.3664577 -3.05617,-3.0561705 0,-1.68971196 1.36646,-3.0563348 3.05617,-3.0563348 z m 0,0.43992757 c -1.44312,0 -2.61624,1.17328926 -2.61624,2.61640723 0,1.4431188 1.17312,2.6162436 2.61624,2.6162436 1.44312,0 2.61624,-1.1731248 2.61624,-2.6162436 0,-1.44311797 -1.17312,-2.61640723 -2.61624,-2.61640723 z m 0,0.3030499 c 1.27937,0 2.31336,1.03398485 2.31336,2.31335733 0,1.2793725 -1.03399,2.3131937 -2.31336,2.3131937 -1.27937,0 -2.31319,-1.0338212 -2.31319,-2.3131937 0,-1.27937248 1.03382,-2.31335733 2.31319,-2.31335733 z m -5.2e-4,0.1696339 c -0.88403,0 -0.88217,-0.00173 -0.88023,0.83819841 0.002,0.60323872 0.0223,0.69020742 0.1864,0.77598082 0.11698,0.061134 1.23506,0.0668 1.37434,0.00693 0.17404,-0.074779 0.20099,-0.180663 0.20099,-0.7898672 0,-0.83214873 7.8e-4,-0.83127533 -0.8815,-0.83127453 z m -0.47751,0.38100706 h 0.47751 0.47746 V 0.71944094 1.169669 h -0.47747 -0.47751 V 0.71944094 Z m -0.4272,1.21553697 -0.16683,0.172148 -0.16687,0.1721464 0.42431,0.4262482 c 0.23337,0.234453 0.42432,0.4482176 0.42432,0.4750327 0,0.026817 -0.19696,0.2447849 -0.43767,0.4843858 l -0.43766,0.4356421 0.15501,0.1599511 c 0.0853,0.087963 0.16676,0.1599102 0.18109,0.1599102 0.0143,0 0.22915,-0.20225 0.47741,-0.4494869 l 0.45143,-0.4495285 0.46271,0.4608181 0.46275,0.4607765 0.17046,-0.1704577 0.17046,-0.1704168 -0.46275,-0.4608591 -0.4628,-0.4608174 0.44871,-0.4505987 0.44874,-0.4505579 -0.16687,-0.1721881 -0.16688,-0.172148 -0.45228,0.4503926 -0.45225,0.4503942 -0.45229,-0.4503942 z"
       sodipodi:nodetypes="ccscccsccsssssssssssssssccssscccccccccccccccssccssccccccccccccccc" /></g></svg>
