<?xml version="1.0" encoding="UTF-8" standalone="no"?>
<!-- Created with Inkscape (http://www.inkscape.org/) -->

<svg
   width="13.260665mm"
   height="13.260665mm"
   viewBox="0 0 13.260665 13.260665"
   version="1.1"
   id="svg1"
   xml:space="preserve"
   xmlns="http://www.w3.org/2000/svg"
   xmlns:svg="http://www.w3.org/2000/svg"><defs
     id="defs1" /><style
     type="text/css"
     id="style2">
	.st0{fill:#1DA1F2;}
	.st1{fill:#FFFFFF;}
</style><g
     id="g142"
     transform="translate(-42.973599,-5.5633607)"><circle
       r="6.2996035"
       cy="12.193693"
       cx="49.603931"
       id="circle119"
       style="fill:#603d23;fill-opacity:1;fill-rule:evenodd;stroke:#ffffff;stroke-width:0.661458;stroke-linecap:round;stroke-linejoin:round;stroke-miterlimit:4;stroke-dasharray:none;stroke-opacity:1" /><path
       id="circle16"
       style="fill:#ffffff;fill-opacity:1;stroke-width:4.73893;stroke-linecap:round;stroke-linejoin:round;paint-order:markers stroke fill"
       d="m 46.775503,10.51515 a 0.81309118,0.81309118 0 0 1 0,-1.1498841 0.81309118,0.81309118 0 0 1 1.149884,0 0.81309118,0.81309118 0 0 1 0,1.1498841 0.81309118,0.81309118 0 0 1 -1.149884,0 z m 4.50697,4.506971 a 0.81309118,0.81309118 0 0 1 0,-1.149884 0.81309118,0.81309118 0 0 1 1.149885,0 0.81309118,0.81309118 0 0 1 0,1.149884 0.81309118,0.81309118 0 0 1 -1.149885,0 z m -3.357085,0 a 0.81309118,0.81309118 0 0 1 -1.149884,0 0.81309118,0.81309118 0 0 1 0,-1.149884 0.81309118,0.81309118 0 0 1 1.149884,0 0.81309118,0.81309118 0 0 1 0,1.149884 z m 4.50697,-4.506971 a 0.81309118,0.81309118 0 0 1 -1.149885,0 0.81309118,0.81309118 0 0 1 0,-1.1498841 0.81309118,0.81309118 0 0 1 1.149885,0 0.81309118,0.81309118 0 0 1 0,1.1498841 z m -6.015336,2.491635 a 0.81309118,0.81309118 0 0 1 -0.813091,-0.813091 0.81309118,0.81309118 0 0 1 0.813091,-0.813091 0.81309118,0.81309118 0 0 1 0.813091,0.813091 0.81309118,0.81309118 0 0 1 -0.813091,0.813091 z m 6.373818,0 a 0.81309118,0.81309118 0 0 1 -0.813091,-0.813091 0.81309118,0.81309118 0 0 1 0.813091,-0.813091 0.81309118,0.81309118 0 0 1 0.813091,0.813091 0.81309118,0.81309118 0 0 1 -0.813091,0.813091 z m -2.373819,2.373817 a 0.81309118,0.81309118 0 0 1 -0.81309,0.813092 0.81309118,0.81309118 0 0 1 -0.813092,-0.813092 0.81309118,0.81309118 0 0 1 0.813092,-0.813091 0.81309118,0.81309118 0 0 1 0.81309,0.813091 z m 1e-6,-3.186908 a 0.81309118,0.81309118 0 0 1 -0.813091,0.813091 0.81309118,0.81309118 0 0 1 -0.813092,-0.813091 0.81309118,0.81309118 0 0 1 0.813092,-0.813091 0.81309118,0.81309118 0 0 1 0.813091,0.813091 z m 0,-3.1869102 a 0.81309118,0.81309118 0 0 1 -0.813091,0.8130914 0.81309118,0.81309118 0 0 1 -0.813092,-0.8130914 0.81309118,0.81309118 0 0 1 0.813092,-0.8130913 0.81309118,0.81309118 0 0 1 0.813091,0.8130913 z" /></g></svg>
