<?xml version="1.0" encoding="UTF-8" standalone="no"?>
<!-- Created with Inkscape (http://www.inkscape.org/) -->

<svg
   width="13.260665mm"
   height="13.260665mm"
   viewBox="0 0 13.260665 13.260665"
   version="1.1"
   id="svg1"
   xml:space="preserve"
   sodipodi:docname="icon_spotit.svg"
   inkscape:version="1.3.2 (091e20ef0f, 2023-11-25, custom)"
   xmlns:inkscape="http://www.inkscape.org/namespaces/inkscape"
   xmlns:sodipodi="http://sodipodi.sourceforge.net/DTD/sodipodi-0.dtd"
   xmlns="http://www.w3.org/2000/svg"
   xmlns:svg="http://www.w3.org/2000/svg"><sodipodi:namedview
     id="namedview1"
     pagecolor="#505050"
     bordercolor="#ffffff"
     borderopacity="1"
     inkscape:showpageshadow="0"
     inkscape:pageopacity="0"
     inkscape:pagecheckerboard="1"
     inkscape:deskcolor="#d1d1d1"
     inkscape:document-units="mm"
     inkscape:zoom="7.7936359"
     inkscape:cx="6.6721105"
     inkscape:cy="32.975623"
     inkscape:window-width="1920"
     inkscape:window-height="1129"
     inkscape:window-x="0"
     inkscape:window-y="27"
     inkscape:window-maximized="1"
     inkscape:current-layer="svg1" /><defs
     id="defs1" /><style
     type="text/css"
     id="style2">
	.st0{fill:#1DA1F2;}
	.st1{fill:#FFFFFF;}
</style><circle
     r="6.2996035"
     cy="6.6303325"
     cx="6.6303325"
     id="circle127"
     style="fill:#603d23;fill-opacity:1;fill-rule:evenodd;stroke:#ffffff;stroke-width:0.661458;stroke-linecap:round;stroke-linejoin:round;stroke-miterlimit:4;stroke-dasharray:none;stroke-opacity:1" /><path
     style="fill:#ffffff;fill-opacity:1;stroke-width:0.151939"
     d="m 6.1813724,10.324479 c -0.115758,-0.03083 0.06173,-0.6728432 0.165057,-1.1647732 0.05773,-0.274817 0.09199,-0.65382 0.121705,-0.808591 0.06932,-0.361042 0.122681,-1.266314 0.07465,-1.266314 -0.06632,0 -0.290253,0.417453 -0.493351,0.919689 -0.242332,0.599259 -0.361744,0.814093 -0.579956,1.0434 -0.214308,0.225205 -0.42628,0.332246 -0.708643,0.35785 -0.403314,0.03657 -0.753039,-0.181616 -0.962283,-0.600351 -0.166638,-0.333472 -0.167306,-0.58286 -0.0024,-0.896348 0.06629,-0.126024 0.112012,-0.242921 0.101598,-0.25977 -0.01041,-0.01685 -0.103891,-0.04228 -0.207728,-0.05651 -0.400478,-0.05489 -0.724372,-0.373546 -0.821687,-0.808394 -0.100865,-0.450711 0.07553,-0.857376 0.451528,-1.040941 0.416688,-0.203431 0.737814,-0.184408 1.613643,0.09559 0.539273,0.172402 1.105309,0.303007 1.144288,0.264028 0.01327,-0.01327 -0.294934,-0.341718 -0.684888,-0.729896 -0.753198,-0.749768 -0.90249,-0.959252 -0.943609,-1.324055 -0.06609,-0.586386 0.399946,-1.037697 1.075543,-1.041553 0.364895,-0.0021 0.589186,0.0985 0.755272,0.338685 0.12987,0.187813 0.184718,0.197778 0.276235,0.05019 0.115951,-0.186996 0.267668,-0.335076 0.43581,-0.425363 0.203346,-0.10919 0.721049,-0.116262 0.953264,-0.01302 0.446115,0.198339 0.642041,0.563562 0.554589,1.033803 -0.06463,0.347547 -0.250671,0.66122 -0.743977,1.254402 -0.498608,0.599556 -0.577501,0.713335 -0.493938,0.712346 0.02842,-3.34e-4 0.268748,-0.118208 0.534071,-0.261935 0.265323,-0.143727 0.654007,-0.346967 0.863743,-0.451643 0.375102,-0.187209 0.387639,-0.190321 0.766744,-0.190321 0.353435,0 0.399308,0.0092 0.5529795,0.110895 0.3415151,0.226003 0.5090901,0.665637 0.4146221,1.087763 -0.07272,0.324938 -0.23144,0.519647 -0.5459776,0.669762 -0.144755,0.06909 -0.263191,0.13606 -0.263191,0.148834 0,0.01277 0.06507,0.09525 0.144607,0.183288 0.1849625,0.204731 0.2573965,0.380652 0.2573965,0.625137 0,0.263729 -0.09644,0.528561 -0.2635915,0.72384 -0.195178,0.228021 -0.425319,0.329915 -0.744061,0.329431 -0.495001,-7.26e-4 -0.823606,-0.245971 -1.361179,-1.015773 -0.157838,-0.226022 -0.383372,-0.516775 -0.501188,-0.646116 l -0.214211,-0.235167 -0.02257,0.797973 c -0.02227,0.787431 -0.129429,1.145095 -0.236173,1.755365 -0.05166,0.2953571 -0.142417,0.8198862 -0.275917,0.7843282 z"
     id="path1"
     sodipodi:nodetypes="sssssssssssssssssssssssscsssssssssscsscssss" /></svg>
