<?xml version="1.0" encoding="UTF-8" standalone="no"?>
<!-- Created with Inkscape (http://www.inkscape.org/) -->

<svg
   width="13.260665mm"
   height="13.260665mm"
   viewBox="0 0 13.260665 13.260665"
   version="1.1"
   id="svg1"
   xml:space="preserve"
   sodipodi:docname="icon_slaptap.svg"
   inkscape:version="1.3.2 (091e20ef0f, 2023-11-25, custom)"
   xmlns:inkscape="http://www.inkscape.org/namespaces/inkscape"
   xmlns:sodipodi="http://sodipodi.sourceforge.net/DTD/sodipodi-0.dtd"
   xmlns="http://www.w3.org/2000/svg"
   xmlns:svg="http://www.w3.org/2000/svg"><sodipodi:namedview
     id="namedview1"
     pagecolor="#505050"
     bordercolor="#ffffff"
     borderopacity="1"
     inkscape:showpageshadow="0"
     inkscape:pageopacity="0"
     inkscape:pagecheckerboard="1"
     inkscape:deskcolor="#d1d1d1"
     inkscape:document-units="mm"
     inkscape:zoom="1.1283896"
     inkscape:cx="124.95684"
     inkscape:cy="35.448749"
     inkscape:window-width="1920"
     inkscape:window-height="1129"
     inkscape:window-x="0"
     inkscape:window-y="27"
     inkscape:window-maximized="1"
     inkscape:current-layer="svg1" /><defs
     id="defs1" /><style
     type="text/css"
     id="style2">
	.st0{fill:#1DA1F2;}
	.st1{fill:#FFFFFF;}
</style><g
     id="g138"
     transform="translate(-107.02866,-14.683686)"><circle
       r="6.2996035"
       cy="21.314018"
       cx="113.659"
       id="circle126"
       style="fill:#603d23;fill-opacity:1;fill-rule:evenodd;stroke:#ffffff;stroke-width:0.661458;stroke-linecap:round;stroke-linejoin:round;stroke-miterlimit:4;stroke-dasharray:none;stroke-opacity:1" /><path
       id="rect111"
       style="color:#000000;fill:#ffffff;fill-opacity:1;stroke-width:0.086982;stroke-linecap:round;stroke-linejoin:round;-inkscape-stroke:none;paint-order:markers stroke fill"
       d="m 111.95345,17.564045 c -0.61631,0 -1.12328,0.507146 -1.12328,1.123459 v 0.929957 c 0,0.616313 0.50697,1.123459 1.12328,1.123459 h 0.42338 0.50676 0.42747 v 1.494335 0.77533 0.930135 0.775373 a 0.34796294,0.34796294 0 0 0 0.0241,0.121498 0.34792815,0.34792815 0 0 0 0.0174,0.03434 0.34796294,0.34796294 0 0 0 0.0481,0.07201 0.34792815,0.34792815 0 0 0 0.0303,0.0303 0.34796294,0.34796294 0 0 0 0.072,0.04815 0.34792815,0.34792815 0 0 0 0.0344,0.01745 0.34796294,0.34796294 0 0 0 0.1215,0.02418 h 0.77556 0.50675 0.4232 c 0.61631,0 1.12345,-0.506964 1.12345,-1.123281 v -0.930134 c 0,-0.616314 -0.50714,-1.123281 -1.12345,-1.123281 h -0.4232 -0.50675 -0.42766 v -1.494344 -0.775509 -1.705508 a 0.34792815,0.34792815 0 0 0 -0.0164,-0.103518 0.34796294,0.34796294 0 0 0 -0.003,-0.0083 0.34792815,0.34792815 0 0 0 -0.0454,-0.08918 0.34796294,0.34796294 0 0 0 -0.003,-0.0051 0.34792815,0.34792815 0 0 0 -0.0735,-0.07358 0.34796294,0.34796294 0 0 0 -0.006,-0.0036 0.34792815,0.34792815 0 0 0 -0.089,-0.04536 0.34796294,0.34796294 0 0 0 -0.009,-0.0029 0.34792815,0.34792815 0 0 0 -0.10352,-0.01641 h -0.77534 -0.50676 z m 0,0.695859 h 0.42338 0.50676 0.42747 v 0.4276 0.929957 0.4276 h -0.42747 -0.50676 -0.42338 c -0.24286,0 -0.42742,-0.184743 -0.42742,-0.4276 v -0.929957 c 0,-0.242859 0.18456,-0.4276 0.42742,-0.4276 z m 2.05342,4.323259 h 0.42765 0.50675 0.42321 c 0.24285,0 0.42759,0.184563 0.42759,0.427422 v 0.930135 c 0,0.242859 -0.18474,0.427422 -0.42759,0.427422 h -0.42321 -0.50675 -0.42765 V 23.94072 Z" /></g></svg>
