<?xml version="1.0" encoding="UTF-8" standalone="no"?>
<!-- Created with Inkscape (http://www.inkscape.org/) -->

<svg
   width="13.260665mm"
   height="13.260665mm"
   viewBox="0 0 13.260665 13.260665"
   version="1.1"
   id="svg1"
   xml:space="preserve"
   sodipodi:docname="icon_.svg"
   inkscape:version="1.3.2 (091e20ef0f, 2023-11-25, custom)"
   xmlns:inkscape="http://www.inkscape.org/namespaces/inkscape"
   xmlns:sodipodi="http://sodipodi.sourceforge.net/DTD/sodipodi-0.dtd"
   xmlns="http://www.w3.org/2000/svg"
   xmlns:svg="http://www.w3.org/2000/svg"><sodipodi:namedview
     id="namedview1"
     pagecolor="#505050"
     bordercolor="#ffffff"
     borderopacity="1"
     inkscape:showpageshadow="0"
     inkscape:pageopacity="0"
     inkscape:pagecheckerboard="1"
     inkscape:deskcolor="#d1d1d1"
     inkscape:document-units="mm"
     inkscape:zoom="1.1283896"
     inkscape:cx="125.39995"
     inkscape:cy="35.44875"
     inkscape:window-width="1920"
     inkscape:window-height="1129"
     inkscape:window-x="0"
     inkscape:window-y="27"
     inkscape:window-maximized="1"
     inkscape:current-layer="svg1" /><defs
     id="defs1" /><style
     type="text/css"
     id="style2">
	.st0{fill:#1DA1F2;}
	.st1{fill:#FFFFFF;}
</style><g
     id="g142"
     transform="translate(-42.973599,-5.5633607)"><circle
       r="6.2996035"
       cy="12.193693"
       cx="49.603931"
       id="circle119"
       style="fill:#603d23;fill-opacity:1;fill-rule:evenodd;stroke:#ffffff;stroke-width:0.661458;stroke-linecap:round;stroke-linejoin:round;stroke-miterlimit:4;stroke-dasharray:none;stroke-opacity:1" /><path
       id="circle16"
       style="fill:#ffffff;fill-opacity:1;stroke-width:4.73893;stroke-linecap:round;stroke-linejoin:round;paint-order:markers stroke fill"
       d="m 46.775503,10.51515 a 0.81309118,0.81309118 0 0 1 0,-1.1498841 0.81309118,0.81309118 0 0 1 1.149884,0 0.81309118,0.81309118 0 0 1 0,1.1498841 0.81309118,0.81309118 0 0 1 -1.149884,0 z m 4.50697,4.506971 a 0.81309118,0.81309118 0 0 1 0,-1.149884 0.81309118,0.81309118 0 0 1 1.149885,0 0.81309118,0.81309118 0 0 1 0,1.149884 0.81309118,0.81309118 0 0 1 -1.149885,0 z m -3.357085,0 a 0.81309118,0.81309118 0 0 1 -1.149884,0 0.81309118,0.81309118 0 0 1 0,-1.149884 0.81309118,0.81309118 0 0 1 1.149884,0 0.81309118,0.81309118 0 0 1 0,1.149884 z m 4.50697,-4.506971 a 0.81309118,0.81309118 0 0 1 -1.149885,0 0.81309118,0.81309118 0 0 1 0,-1.1498841 0.81309118,0.81309118 0 0 1 1.149885,0 0.81309118,0.81309118 0 0 1 0,1.1498841 z m -6.015336,2.491635 a 0.81309118,0.81309118 0 0 1 -0.813091,-0.813091 0.81309118,0.81309118 0 0 1 0.813091,-0.813091 0.81309118,0.81309118 0 0 1 0.813091,0.813091 0.81309118,0.81309118 0 0 1 -0.813091,0.813091 z m 6.373818,0 a 0.81309118,0.81309118 0 0 1 -0.813091,-0.813091 0.81309118,0.81309118 0 0 1 0.813091,-0.813091 0.81309118,0.81309118 0 0 1 0.813091,0.813091 0.81309118,0.81309118 0 0 1 -0.813091,0.813091 z m -2.373819,2.373817 a 0.81309118,0.81309118 0 0 1 -0.81309,0.813092 0.81309118,0.81309118 0 0 1 -0.813092,-0.813092 0.81309118,0.81309118 0 0 1 0.813092,-0.813091 0.81309118,0.81309118 0 0 1 0.81309,0.813091 z m 1e-6,-3.186908 a 0.81309118,0.81309118 0 0 1 -0.813091,0.813091 0.81309118,0.81309118 0 0 1 -0.813092,-0.813091 0.81309118,0.81309118 0 0 1 0.813092,-0.813091 0.81309118,0.81309118 0 0 1 0.813091,0.813091 z m 0,-3.1869102 a 0.81309118,0.81309118 0 0 1 -0.813091,0.8130914 0.81309118,0.81309118 0 0 1 -0.813092,-0.8130914 0.81309118,0.81309118 0 0 1 0.813092,-0.8130913 0.81309118,0.81309118 0 0 1 0.813091,0.8130913 z" /></g><circle
     r="6.2996035"
     cy="27.574673"
     cx="66.262131"
     id="circle128"
     style="fill:#603d23;fill-opacity:1;fill-rule:evenodd;stroke:#ffffff;stroke-width:0.661458;stroke-linecap:round;stroke-linejoin:round;stroke-miterlimit:4;stroke-dasharray:none;stroke-opacity:1" /><g
     id="g141"><circle
       r="6.2996035"
       cy="27.574673"
       cx="66.262131"
       id="circle118"
       style="fill:#603d23;fill-opacity:1;fill-rule:evenodd;stroke:#ffffff;stroke-width:0.661458;stroke-linecap:round;stroke-linejoin:round;stroke-miterlimit:4;stroke-dasharray:none;stroke-opacity:1" /><path
       id="rect33"
       style="fill:#ffffff;fill-opacity:1;stroke-width:4.87736;stroke-linecap:round;stroke-linejoin:round;paint-order:markers stroke fill"
       d="m 69.512131,29.281344 v 1.543327 h -1.543328 v -1.543327 z m 0,-4.95667 v 1.543328 h -1.543328 v -1.543328 z m -4.956672,4.95667 v 1.543327 h -1.543328 v -1.543327 z m 0,-4.95667 v 1.543328 h -1.543328 v -1.543328 z m 2.478336,4.95667 v 1.543327 h -1.543329 v -1.543327 z m 0,-4.95667 v 1.543328 h -1.543329 v -1.543328 z m 0.935007,2.478335 h 1.543329 v 1.543328 h -1.543329 z m -2.478336,0 h 1.543329 v 1.543328 h -1.543329 z m -2.478335,0 h 1.543328 v 1.543328 h -1.543328 z" /></g><g
     id="g135"><circle
       r="6.2996035"
       cy="-8.9367266"
       cx="113.46604"
       id="circle120"
       style="fill:#603d23;fill-opacity:1;fill-rule:evenodd;stroke:#ffffff;stroke-width:0.661458;stroke-linecap:round;stroke-linejoin:round;stroke-miterlimit:4;stroke-dasharray:none;stroke-opacity:1" /><path
       id="rect45"
       style="fill:#ffffff;fill-opacity:1;stroke-width:2.2714;stroke-linecap:round;stroke-linejoin:round;paint-order:markers stroke fill"
       d="m 115.07651,-6.8031812 h 1.88953 v 0.843384 h -1.88953 z m 1.36646,-3.0783074 v 1.8895246 h -0.84339 v -1.8895246 z m -1.36646,-2.0321674 h 1.88953 v 0.843384 h -1.88953 z m -5.11047,5.1104748 h 1.88953 v 0.843384 h -1.88953 z m 1.36646,-3.0783074 v 1.8895246 h -0.84339 v -1.8895246 z m -1.36646,-2.0321674 h 1.88953 v 0.843384 h -1.88953 z m 3.92169,4.5874051 v 1.8895243 h -0.84338 v -1.8895243 z m -1.36645,-2.0321677 h 1.88952 v 0.843384 h -1.88952 z m 1.36645,-3.0783084 v 1.889524 h -0.84338 v -1.889524 z" /></g><g
     id="g136"><circle
       r="6.2996035"
       cy="2.0100303"
       cx="118.93302"
       id="circle122"
       style="fill:#603d23;fill-opacity:1;fill-rule:evenodd;stroke:#ffffff;stroke-width:0.661458;stroke-linecap:round;stroke-linejoin:round;stroke-miterlimit:4;stroke-dasharray:none;stroke-opacity:1" /><path
       id="path75"
       style="fill:#ffffff;fill-opacity:1;stroke-width:0.134806"
       d="m 118.96282,-1.9899697 -0.54067,0.6955182 c -1.61469,0.2465822 -2.85411,1.64340696 -2.85411,3.3263398 0,1.6881028 1.24715,3.0878509 2.86911,3.3280711 l 0.52567,0.6500709 0.49229,-0.653944 c 1.60918,-0.2513264 2.8429,-1.6451862 2.8429,-3.324198 0,-1.67748121 -1.23151,-3.0703762 -2.83853,-3.3235794 z m -0.0298,0.9655232 c 1.68972,0 3.05621,1.36662284 3.05621,3.0563348 0,1.6897128 -1.36649,3.0561705 -3.05621,3.0561705 -1.68971,0 -3.05617,-1.3664577 -3.05617,-3.0561705 0,-1.68971196 1.36646,-3.0563348 3.05617,-3.0563348 z m 0,0.43992757 c -1.44312,0 -2.61624,1.17328926 -2.61624,2.61640723 0,1.4431188 1.17312,2.6162436 2.61624,2.6162436 1.44312,0 2.61624,-1.1731248 2.61624,-2.6162436 0,-1.44311797 -1.17312,-2.61640723 -2.61624,-2.61640723 z m 0,0.3030499 c 1.27937,0 2.31336,1.03398485 2.31336,2.31335733 0,1.2793725 -1.03399,2.3131937 -2.31336,2.3131937 -1.27937,0 -2.31319,-1.0338212 -2.31319,-2.3131937 0,-1.27937248 1.03382,-2.31335733 2.31319,-2.31335733 z m -5.2e-4,0.1696339 c -0.88403,0 -0.88217,-0.00173 -0.88023,0.83819841 0.002,0.60323872 0.0223,0.69020742 0.1864,0.77598082 0.11698,0.061134 1.23506,0.0668 1.37434,0.00693 0.17404,-0.074779 0.20099,-0.180663 0.20099,-0.7898672 0,-0.83214873 7.8e-4,-0.83127533 -0.8815,-0.83127453 z m -0.47751,0.38100706 h 0.47751 0.47746 V 0.71944094 1.169669 h -0.47747 -0.47751 V 0.71944094 Z m -0.4272,1.21553697 -0.16683,0.172148 -0.16687,0.1721464 0.42431,0.4262482 c 0.23337,0.234453 0.42432,0.4482176 0.42432,0.4750327 0,0.026817 -0.19696,0.2447849 -0.43767,0.4843858 l -0.43766,0.4356421 0.15501,0.1599511 c 0.0853,0.087963 0.16676,0.1599102 0.18109,0.1599102 0.0143,0 0.22915,-0.20225 0.47741,-0.4494869 l 0.45143,-0.4495285 0.46271,0.4608181 0.46275,0.4607765 0.17046,-0.1704577 0.17046,-0.1704168 -0.46275,-0.4608591 -0.4628,-0.4608174 0.44871,-0.4505987 0.44874,-0.4505579 -0.16687,-0.1721881 -0.16688,-0.172148 -0.45228,0.4503926 -0.45225,0.4503942 -0.45229,-0.4503942 z"
       sodipodi:nodetypes="ccscccsccsssssssssssssssccssscccccccccccccccssccssccccccccccccccc" /></g><g
     id="g140"><circle
       r="6.2996035"
       cy="-2.5908365"
       cx="81.101944"
       id="circle121"
       style="fill:#603d23;fill-opacity:1;fill-rule:evenodd;stroke:#ffffff;stroke-width:0.661458;stroke-linecap:round;stroke-linejoin:round;stroke-miterlimit:4;stroke-dasharray:none;stroke-opacity:1" /><path
       id="rect86"
       style="fill:#ffffff;fill-opacity:1;stroke:none;stroke-width:0.316284;stroke-linecap:round;stroke-linejoin:round;stroke-dasharray:none;stroke-opacity:0.661872;paint-order:markers stroke fill"
       d="m 83.524829,-5.4688073 v 5.75597077 h 0.538418 0.538418 V -5.4688073 h -0.538418 z m -4.84577,0 v 5.75597077 h 0.538417 0.538419 V -5.4688073 h -0.538419 z m -1.076837,-2.92e-5 h 0.538418 v 5.75598578 h -0.538418 z m 3.76893,1.5e-5 h 0.538418 v 5.75598497 h -0.538418 z m 1.076838,0 h 0.538418 V 0.28716347 H 82.44799 Z m -2.153676,0 h 0.538419 v 5.75598497 h -0.538419 z" /></g><g
     id="g134"><circle
       r="6.2996035"
       cy="-5.8250508"
       cx="97.128601"
       id="circle1516-1"
       style="fill:#603d23;fill-opacity:1;fill-rule:evenodd;stroke:#ffffff;stroke-width:0.661458;stroke-linecap:round;stroke-linejoin:round;stroke-miterlimit:4;stroke-dasharray:none;stroke-opacity:1" /><g
       id="g104"
       transform="matrix(0.04403106,0,0,0.04403106,91.9052,5.8134675)"><path
         id="path98"
         style="fill:#ffffff;fill-opacity:1;stroke-width:3.8;stroke-linecap:round;stroke-linejoin:round;stroke-opacity:0.661872;paint-order:markers stroke fill"
         d="m 39.140569,-343.81453 h 79.489341 v 79.48934 z"
         sodipodi:nodetypes="cccc" /><path
         id="path99"
         style="fill:#000000;fill-opacity:0;stroke-width:3.8;stroke-linecap:round;stroke-linejoin:round;stroke-opacity:0.661872;paint-order:markers stroke fill"
         d="m 198.11925,-343.81453 h -79.48934 v 79.48934 z"
         sodipodi:nodetypes="cccc" /><path
         id="path101"
         style="fill:#000000;fill-opacity:0;stroke-width:3.8;stroke-linecap:round;stroke-linejoin:round;stroke-opacity:0.661872;paint-order:markers stroke fill"
         d="m 198.11925,-184.83585 v -79.48934 h -79.48934 z"
         sodipodi:nodetypes="cccc" /><path
         id="path102"
         style="fill:#000000;fill-opacity:0;stroke-width:3.8;stroke-linecap:round;stroke-linejoin:round;stroke-opacity:0.661872;paint-order:markers stroke fill"
         d="M 118.62991,-264.32519 H 39.14057 v 79.48934 z"
         sodipodi:nodetypes="cccc" /><path
         id="path100"
         style="fill:#ffffff;fill-opacity:1;stroke-width:3.8;stroke-linecap:round;stroke-linejoin:round;stroke-opacity:0.661872;paint-order:markers stroke fill"
         d="m 39.14057,-343.81453 v 79.48934 h 79.48934 z"
         sodipodi:nodetypes="cccc" /><path
         id="path103"
         style="fill:#ffffff;fill-opacity:1;stroke-width:3.8;stroke-linecap:round;stroke-linejoin:round;stroke-opacity:0.661872;paint-order:markers stroke fill"
         d="m 118.62991,-264.32519 h 79.48934 v -79.48934 z"
         sodipodi:nodetypes="cccc" /><path
         id="path104"
         style="fill:#ffffff;fill-opacity:1;stroke-width:3.8;stroke-linecap:round;stroke-linejoin:round;stroke-opacity:0.661872;paint-order:markers stroke fill"
         d="m 118.62991,-264.32519 v 79.48934 h 79.48934 z"
         sodipodi:nodetypes="cccc" /><path
         id="rect96"
         style="fill:#000000;fill-opacity:0;stroke-width:3.8;stroke-linecap:round;stroke-linejoin:round;stroke-opacity:0.661872;paint-order:markers stroke fill"
         d="m 39.14057,-184.83585 h 79.48934 v -79.48934 z"
         sodipodi:nodetypes="cccc" /></g></g><g
     id="g139"><circle
       r="6.2996035"
       cy="11.996783"
       cx="81.532333"
       id="circle127"
       style="fill:#603d23;fill-opacity:1;fill-rule:evenodd;stroke:#ffffff;stroke-width:0.661458;stroke-linecap:round;stroke-linejoin:round;stroke-miterlimit:4;stroke-dasharray:none;stroke-opacity:1" /><path
       id="path61"
       style="fill:#ffffff;fill-opacity:1;stroke-width:0.646281;stroke-linecap:round;stroke-linejoin:bevel;stroke-opacity:0.561714;paint-order:markers stroke fill"
       d="m 81.532354,9.9384583 0.625666,1.0949987 1.234767,0.256692 -0.84806,0.933457 0.137432,1.253602 -1.149805,-0.518092 -1.149838,0.518092 0.137432,-1.253602 -0.848026,-0.933457 1.234734,-0.256692 z m 0,-2.1330227 -1.326096,2.3207154 -2.616893,0.544037 1.797309,1.978308 -0.291216,2.656939 2.436896,-1.098044 2.436852,1.098044 -0.291213,-2.656939 1.797309,-1.978308 -2.616893,-0.544037 z" /></g><g
     id="g138"><circle
       r="6.2996035"
       cy="21.314018"
       cx="113.659"
       id="circle126"
       style="fill:#603d23;fill-opacity:1;fill-rule:evenodd;stroke:#ffffff;stroke-width:0.661458;stroke-linecap:round;stroke-linejoin:round;stroke-miterlimit:4;stroke-dasharray:none;stroke-opacity:1" /><path
       id="rect111"
       style="color:#000000;fill:#ffffff;fill-opacity:1;stroke-width:0.086982;stroke-linecap:round;stroke-linejoin:round;-inkscape-stroke:none;paint-order:markers stroke fill"
       d="m 111.95345,17.564045 c -0.61631,0 -1.12328,0.507146 -1.12328,1.123459 v 0.929957 c 0,0.616313 0.50697,1.123459 1.12328,1.123459 h 0.42338 0.50676 0.42747 v 1.494335 0.77533 0.930135 0.775373 a 0.34796294,0.34796294 0 0 0 0.0241,0.121498 0.34792815,0.34792815 0 0 0 0.0174,0.03434 0.34796294,0.34796294 0 0 0 0.0481,0.07201 0.34792815,0.34792815 0 0 0 0.0303,0.0303 0.34796294,0.34796294 0 0 0 0.072,0.04815 0.34792815,0.34792815 0 0 0 0.0344,0.01745 0.34796294,0.34796294 0 0 0 0.1215,0.02418 h 0.77556 0.50675 0.4232 c 0.61631,0 1.12345,-0.506964 1.12345,-1.123281 v -0.930134 c 0,-0.616314 -0.50714,-1.123281 -1.12345,-1.123281 h -0.4232 -0.50675 -0.42766 v -1.494344 -0.775509 -1.705508 a 0.34792815,0.34792815 0 0 0 -0.0164,-0.103518 0.34796294,0.34796294 0 0 0 -0.003,-0.0083 0.34792815,0.34792815 0 0 0 -0.0454,-0.08918 0.34796294,0.34796294 0 0 0 -0.003,-0.0051 0.34792815,0.34792815 0 0 0 -0.0735,-0.07358 0.34796294,0.34796294 0 0 0 -0.006,-0.0036 0.34792815,0.34792815 0 0 0 -0.089,-0.04536 0.34796294,0.34796294 0 0 0 -0.009,-0.0029 0.34792815,0.34792815 0 0 0 -0.10352,-0.01641 h -0.77534 -0.50676 z m 0,0.695859 h 0.42338 0.50676 0.42747 v 0.4276 0.929957 0.4276 h -0.42747 -0.50676 -0.42338 c -0.24286,0 -0.42742,-0.184743 -0.42742,-0.4276 v -0.929957 c 0,-0.242859 0.18456,-0.4276 0.42742,-0.4276 z m 2.05342,4.323259 h 0.42765 0.50675 0.42321 c 0.24285,0 0.42759,0.184563 0.42759,0.427422 v 0.930135 c 0,0.242859 -0.18474,0.427422 -0.42759,0.427422 h -0.42321 -0.50675 -0.42765 V 23.94072 Z" /></g><g
     id="g137"><circle
       r="6.2996035"
       cy="9.1637735"
       cx="101.59429"
       id="circle125"
       style="fill:#603d23;fill-opacity:1;fill-rule:evenodd;stroke:#ffffff;stroke-width:0.661458;stroke-linecap:round;stroke-linejoin:round;stroke-miterlimit:4;stroke-dasharray:none;stroke-opacity:1" /><path
       id="path117"
       style="color:#000000;fill:#ffffff;fill-opacity:1;stroke-width:0.105289;stroke-linecap:round;stroke-linejoin:round;-inkscape-stroke:none;paint-order:markers stroke fill"
       d="m 98.94344,11.272858 a 0.42115919,0.42115919 0 0 0 -0.421161,0.421161 0.42115919,0.42115919 0 0 0 0.421161,0.421158 h 3.60102 a 0.42115919,0.42115919 0 0 0 0.42116,-0.421158 0.42115919,0.42115919 0 0 0 -0.42116,-0.421161 z m 1.80061,-5.1474764 c -1.262989,0 -2.296009,1.0328148 -2.296009,2.2958111 0,1.2629965 1.03302,2.2960163 2.296009,2.2960163 1.263,0 2.2958,-1.0330198 2.2958,-2.2960163 0,-1.2629963 -1.0328,-2.2958111 -2.2958,-2.2958111 z m 0,0.8423184 c 0.80777,0 1.45349,0.6457183 1.45349,1.4534927 0,0.8077745 -0.64572,1.4536977 -1.45349,1.4536977 -0.807766,0 -1.45369,-0.6459232 -1.45369,-1.4536977 0,-0.8077744 0.645924,-1.4534927 1.45369,-1.4534927 z m 3.57532,-1.0539263 a 0.42115919,0.42115919 0 0 0 -0.42116,0.4211593 v 5.65768 a 0.42115919,0.42115919 0 0 0 0.42116,0.42116 0.42115919,0.42115919 0 0 0 0.42117,-0.42116 v -5.65768 a 0.42115919,0.42115919 0 0 0 -0.42117,-0.4211593 z" /></g></svg>
