<?xml version="1.0" encoding="UTF-8" standalone="no"?>
<!-- Created with Inkscape (http://www.inkscape.org/) -->

<svg
   width="13.260665mm"
   height="13.260665mm"
   viewBox="0 0 13.260665 13.260665"
   version="1.1"
   id="svg1"
   xml:space="preserve"
   sodipodi:docname="icon_glyphs.svg"
   inkscape:version="1.3.2 (091e20ef0f, 2023-11-25, custom)"
   xmlns:inkscape="http://www.inkscape.org/namespaces/inkscape"
   xmlns:sodipodi="http://sodipodi.sourceforge.net/DTD/sodipodi-0.dtd"
   xmlns="http://www.w3.org/2000/svg"
   xmlns:svg="http://www.w3.org/2000/svg"><sodipodi:namedview
     id="namedview1"
     pagecolor="#505050"
     bordercolor="#ffffff"
     borderopacity="1"
     inkscape:showpageshadow="0"
     inkscape:pageopacity="0"
     inkscape:pagecheckerboard="1"
     inkscape:deskcolor="#d1d1d1"
     inkscape:document-units="mm"
     inkscape:zoom="18.076959"
     inkscape:cx="25.031865"
     inkscape:cy="25.059524"
     inkscape:window-width="1920"
     inkscape:window-height="1129"
     inkscape:window-x="0"
     inkscape:window-y="27"
     inkscape:window-maximized="1"
     inkscape:current-layer="svg1" /><defs
     id="defs1" /><style
     type="text/css"
     id="style2">
	.st0{fill:#1DA1F2;}
	.st1{fill:#FFFFFF;}
</style><g
     id="g6"><circle
       r="6.2996035"
       cy="6.6303325"
       cx="6.6303315"
       id="circle122"
       style="fill:#603d23;fill-opacity:1;fill-rule:evenodd;stroke:#ffffff;stroke-width:0.661458;stroke-linecap:round;stroke-linejoin:round;stroke-miterlimit:4;stroke-dasharray:none;stroke-opacity:1" /><path
       id="path1"
       style="fill:#ffffff;fill-opacity:1;stroke-width:0.14586"
       d="m 6.6303296,3.34703 c 1.8282762,0 3.3068178,1.4786852 3.3068178,3.3069528 0,1.8282685 -1.4785416,3.306775 -3.3068178,3.306775 -1.8282654,0 -3.3067745,-1.4785065 -3.3067745,-3.306775 0,-1.8282676 1.4785091,-3.3069528 3.3067745,-3.3069528 z M 6.6625732,2.3023344 6.0775685,3.0548847 C 4.3304747,3.3216866 2.9894228,4.8330503 2.9894228,6.6539828 c 0,1.8265264 1.3494157,3.3410532 3.1043757,3.6009712 l 0.5687747,0.703377 0.5326575,-0.707568 C 8.9363627,9.9788284 10.271247,8.4706728 10.271247,6.6539828 10.271247,4.838949 8.9387539,3.3318372 7.1999591,3.0578715 Z M 6.62981,4.2742831 c -0.88403,0 -0.88217,-0.00173 -0.88023,0.8381984 0.002,0.6032387 0.0223,0.6902074 0.1864,0.7759808 0.11698,0.061134 1.23506,0.0668 1.37434,0.00693 0.17404,-0.074779 0.20099,-0.180663 0.20099,-0.7898672 0,-0.8321487 7.8e-4,-0.8312753 -0.8815,-0.8312745 z M 6.1523,4.6552901 h 0.47751 0.47746 v 0.450269 0.4502281 H 6.6298 6.15229 V 5.1055591 Z M 5.7251,6.6026521 5.55827,6.7748001 5.3914,6.9469465 5.81571,7.3731947 c 0.23337,0.234453 0.42432,0.4482176 0.42432,0.4750327 0,0.026817 -0.19696,0.2447849 -0.43767,0.4843858 L 5.3647,8.7682553 5.51971,8.9282064 c 0.0853,0.087963 0.16676,0.1599102 0.18109,0.1599102 0.0143,0 0.22915,-0.20225 0.47741,-0.4494869 L 6.62964,8.1891012 7.09235,8.6499193 7.5551,9.1106958 7.72556,8.9402381 7.89602,8.7698213 7.43327,8.3089622 6.97047,7.8481448 7.41918,7.3975461 7.86792,6.9469882 7.70105,6.7748001 7.53417,6.6026521 7.08189,7.0530447 6.62964,7.5034389 6.17735,7.0530447 Z" /></g></svg>
