<?xml version="1.0" encoding="UTF-8" standalone="no"?>
<!-- Created with Inkscape (http://www.inkscape.org/) -->

<svg
   width="13.260665mm"
   height="13.260665mm"
   viewBox="0 0 13.260665 13.260665"
   version="1.1"
   id="svg1"
   xml:space="preserve"
   xmlns="http://www.w3.org/2000/svg"
   xmlns:svg="http://www.w3.org/2000/svg"><defs
     id="defs1" /><g
     id="layer1"
     transform="translate(-98.361187,-141.86966)"><circle
       r="6.2996035"
       cy="148.5"
       cx="104.99152"
       id="circle1516"
       style="fill:#603d23;fill-opacity:1;fill-rule:evenodd;stroke:#ffffff;stroke-width:0.661458;stroke-linecap:round;stroke-linejoin:round;stroke-miterlimit:4;stroke-dasharray:none;stroke-opacity:1" /><path
       id="path3"
       style="fill:none;stroke:#ffffff;stroke-width:0.529167;stroke-linejoin:round;stroke-dasharray:none;stroke-opacity:1;paint-order:fill markers stroke"
       d="m 106.35533,148.48443 a 1.2727796,1.2727796 0 0 1 -1.27278,1.27278 1.2727796,1.2727796 0 0 1 -1.27278,-1.27278 1.2727796,1.2727796 0 0 1 1.27278,-1.27278 1.2727796,1.2727796 0 0 1 1.27278,1.27278 z m -1.27278,2.25443 c -2.75737,0 -4.97777,-2.25443 -4.97777,-2.25443 0,0 2.22041,-2.25442 4.97777,-2.25442 2.75738,0 4.97777,2.25442 4.97777,2.25442 0,0 -2.22039,2.25442 -4.97777,2.25443 z" /></g><style
     type="text/css"
     id="style2">
	.st0{fill:#1DA1F2;}
	.st1{fill:#FFFFFF;}
</style></svg>
