<?xml version="1.0" encoding="UTF-8" standalone="no"?>
<!-- Created with Inkscape (http://www.inkscape.org/) -->

<svg
   width="210mm"
   height="297mm"
   viewBox="0 0 210 297"
   version="1.1"
   id="svg1"
   inkscape:version="1.3.2 (091e20ef0f, 2023-11-25, custom)"
   sodipodi:docname="simpleshapes.svg"
   xmlns:inkscape="http://www.inkscape.org/namespaces/inkscape"
   xmlns:sodipodi="http://sodipodi.sourceforge.net/DTD/sodipodi-0.dtd"
   xmlns="http://www.w3.org/2000/svg"
   xmlns:svg="http://www.w3.org/2000/svg">
  <sodipodi:namedview
     id="namedview1"
     pagecolor="#505050"
     bordercolor="#ffffff"
     borderopacity="1"
     inkscape:showpageshadow="0"
     inkscape:pageopacity="0"
     inkscape:pagecheckerboard="1"
     inkscape:deskcolor="#d1d1d1"
     inkscape:document-units="mm"
     inkscape:zoom="0.16772134"
     inkscape:cx="1696.266"
     inkscape:cy="-2116.606"
     inkscape:window-width="1493"
     inkscape:window-height="1119"
     inkscape:window-x="417"
     inkscape:window-y="27"
     inkscape:window-maximized="0"
     inkscape:current-layer="layer1"
     showguides="false" />
  <defs
     id="defs1" />
  <g
     inkscape:label="Layer 1"
     inkscape:groupmode="layer"
     id="layer1">
    <path
       id="path61"
       style="fill:#120000;fill-opacity:1;stroke-width:8.19536;stroke-linecap:round;stroke-linejoin:bevel;stroke-opacity:0.561714;paint-order:markers stroke fill"
       d="m 652.53888,-826.6508 7.93394,13.88546 15.65783,3.25506 -10.75406,11.83697 1.74273,15.89669 -14.58044,-6.56983 -14.58087,6.56983 1.74273,-15.89669 -10.75364,-11.83697 15.65741,-3.25506 z m 0,-27.04845 -16.81599,29.42852 -33.18429,6.89884 22.79133,25.08653 -3.69285,33.69212 30.9018,-13.92408 30.90124,13.92408 -3.69285,-33.69212 22.79133,-25.08653 -33.18429,-6.89884 z" />
    <path
       id="path53"
       style="color:#000000;fill:#000000;stroke-width:2.22721;stroke-linecap:square;-inkscape-stroke:none;paint-order:markers stroke fill"
       d="m 512.06594,-736.04692 h 60 v 60 h -60 z m -20,-20 v 100.00001 h 99.99999 v -100.00001 z" />
    <path
       id="path57"
       style="color:#000000;fill:#000000;stroke-width:2.58391;stroke-linecap:square;-inkscape-stroke:none;paint-order:markers stroke fill"
       d="m 654.90859,-731.1694 c 16.72222,0 30.00252,13.27527 30.00252,29.99748 0,16.72222 -13.2803,30.00252 -30.00252,30.00252 -16.72222,0 -29.99748,-13.2803 -29.99748,-30.00252 0,-16.72221 13.27526,-29.99748 29.99748,-29.99748 z m 2.6e-4,-19.99999 c -27.47778,0 -49.99774,22.51994 -49.99774,49.99772 0,27.47778 22.51996,50.00227 49.99774,50.00227 27.47778,0 50.00226,-22.52449 50.00226,-50.00227 0,-27.47778 -22.52448,-49.99772 -50.00226,-49.99772 z" />
    <path
       style="fill:#000000;fill-opacity:1;stroke:none;stroke-width:0.865063;stroke-linecap:round;stroke-linejoin:round;stroke-dasharray:none;stroke-opacity:1;paint-order:markers stroke fill"
       d="m 424.62343,-894.90469 a 49.999995,49.999995 0 0 0 -5.94414,0.42553 56.165451,56.165451 0 0 1 30.05824,49.57455 56.165451,56.165451 0 0 1 -29.80693,49.59247 49.999995,49.999995 0 0 0 5.69283,0.40734 49.999995,49.999995 0 0 0 50.00029,-49.99981 49.999995,49.999995 0 0 0 -50.00029,-50.00019 z"
       id="path6" />
    <path
       id="rect6"
       style="fill:#000000;fill-opacity:1;stroke:none;stroke-width:3.13826;stroke-linecap:round;stroke-linejoin:round;stroke-dasharray:none;stroke-opacity:1;paint-order:markers stroke fill"
       d="m 347.37387,-678.78065 a 21.462406,21.462406 0 0 0 -20.04209,13.93895 11.31913,11.31913 0 0 0 -5.81935,-1.61064 11.31913,11.31913 0 0 0 -11.31929,11.31905 11.31913,11.31913 0 0 0 0.0469,0.65446 16.201828,16.201828 0 0 0 -3.66111,-0.42374 16.201828,16.201828 0 0 0 -16.20175,16.20197 16.201828,16.201828 0 0 0 16.20175,16.20176 h 64.9226 a 18.875725,18.875725 0 0 0 18.87565,-18.87566 18.875725,18.875725 0 0 0 -18.87565,-18.87588 18.875725,18.875725 0 0 0 -2.84281,0.22611 21.462406,21.462406 0 0 0 -21.28483,-18.75638 z" />
    <path
       id="path20"
       style="fill:#000000;fill-opacity:1;stroke-width:2.25887;stroke-linecap:round;stroke-linejoin:round;paint-order:markers stroke fill"
       d="m 98.2696,-926.82718 c 0,0 31.05422,51.79502 31.05422,68.94578 0,17.15077 -13.90345,31.05422 -31.05422,31.05422 -17.15076,0 -31.05421,-13.90345 -31.05421,-31.05422 0,-17.15076 31.05421,-68.94578 31.05421,-68.94578 z"
       sodipodi:nodetypes="ccscc" />
    <path
       id="circle15"
       style="fill:#000000;fill-opacity:1;stroke:none;stroke-width:1.69194;stroke-linecap:round;stroke-linejoin:round;stroke-dasharray:none;stroke-opacity:1;paint-order:markers stroke fill"
       d="m 204.95939,-849.2691 a 15.57983,15.57983 0 0 0 -15.57986,15.57987 15.57983,15.57983 0 0 0 0.007,0.0858 11.690792,11.690792 0 0 0 -0.83124,-0.0331 11.690792,11.690792 0 0 0 -11.69082,11.69082 11.690792,11.690792 0 0 0 3.1587,7.95906 15.57983,15.57983 0 0 0 -4.55297,10.95023 15.57983,15.57983 0 0 0 15.57987,15.57975 15.57983,15.57983 0 0 0 11.69082,-5.29345 c 1.17555,17.71021 2.96301,40.53769 -6.55151,43.48093 h 21.73546 c -7.59676,-9.52864 -7.44882,-26.21266 -6.69904,-40.35461 a 11.404491,11.404491 0 0 0 2.06659,0.21252 11.404491,11.404491 0 0 0 8.94515,-4.37179 15.57983,15.57983 0 0 0 1.56906,0.11222 15.57983,15.57983 0 0 0 15.57975,-15.57988 15.57983,15.57983 0 0 0 -3.29096,-9.56912 15.57983,15.57983 0 0 0 1.72657,-7.0557 15.57983,15.57983 0 0 0 -15.57975,-15.57975 15.57983,15.57983 0 0 0 -3.53053,0.44416 15.57983,15.57983 0 0 0 -13.75146,-8.25805 z" />
    <path
       id="path21"
       style="color:#000000;fill:#000000;fill-opacity:1;stroke-width:0.638306;stroke-linecap:round;stroke-linejoin:round;-inkscape-stroke:none;paint-order:markers stroke fill"
       d="m 281.56361,-888.22012 c -3.45364,3.05162 -5.34304,6.8389 -5.98783,10.46428 -0.83689,4.70545 0.2359,9.1747 2.86741,11.74147 0.63107,0.61518 1.64134,0.60232 2.25654,-0.0287 0.61517,-0.63106 0.60231,-1.64132 -0.0287,-2.25652 -1.5227,-1.48524 -2.63753,-5.0512 -1.95339,-8.89781 0.49983,-2.81035 1.87307,-5.74549 4.50217,-8.22886 -0.60116,-0.91174 -1.15115,-1.84495 -1.6562,-2.79386 z m 80.3946,-77.34115 c 0,0 -56.89173,22.10675 -71.71779,34.23321 -13.02247,10.65127 -16.29072,28.80225 -8.67681,43.10794 1.02892,-0.90916 2.19034,-1.75577 3.50701,-2.50986 23.35494,-13.37595 43.61851,-35.22706 54.36847,-52.83235 0.22038,-0.36176 0.57555,-0.62104 0.98725,-0.72073 0.41154,-0.0994 0.84571,-0.0312 1.20694,0.18966 0.75235,0.45951 0.98957,1.44203 0.52974,2.19419 -11.06447,18.12035 -31.54592,40.21523 -55.50647,53.93802 -1.33235,0.76307 -2.46731,1.61923 -3.43674,2.53492 0.65407,0.992 1.36382,1.96027 2.1325,2.90008 12.12646,14.82607 37.04726,-1.57707 45.40185,-11.82528 25.43418,-31.19904 31.20405,-71.2098 31.20405,-71.2098 z"
       sodipodi:nodetypes="sscscscsscscsccccscssc" />
    <path
       id="path45"
       style="fill:#000000;fill-opacity:0.993938;stroke-width:0.953996;stroke-linecap:round;stroke-linejoin:round;paint-order:markers stroke fill"
       d="m 118.76298,-662.34655 a 19.328935,19.328935 0 0 1 -19.328935,-19.32894 19.328935,19.328935 0 0 1 19.328935,-19.32893 19.328935,19.328935 0 0 1 19.32894,19.32893 19.328935,19.328935 0 0 1 -19.32894,19.32894 z m 20.76454,-69.30552 a 25.717033,25.717033 0 0 0 -14.3343,7.177 25.717033,25.717033 0 0 0 -6.41376,10.79966 25.717033,25.717033 0 0 0 -6.44669,-10.79966 25.717033,25.717033 0 0 0 -14.266755,-7.16716 25.717033,25.717033 0 0 0 -5.02005,15.15605 25.717033,25.717033 0 0 0 3.12705,12.21646 25.717033,25.717033 0 0 0 -12.22066,-3.12286 25.717033,25.717033 0 0 0 -15.15618,5.02019 25.717033,25.717033 0 0 0 7.16728,14.26675 25.717033,25.717033 0 0 0 10.841,6.42491 25.717033,25.717033 0 0 0 -10.841,6.43541 25.717033,25.717033 0 0 0 -7.16728,14.26674 25.717033,25.717033 0 0 0 15.15618,5.02018 25.717033,25.717033 0 0 0 12.22052,-3.12272 25.717033,25.717033 0 0 0 -3.12691,12.21633 25.717033,25.717033 0 0 0 5.02005,15.15606 25.717033,25.717033 0 0 0 14.266755,-7.16716 25.717033,25.717033 0 0 0 6.44629,-10.79822 25.717033,25.717033 0 0 0 6.41403,10.79822 25.717033,25.717033 0 0 0 14.26688,7.16716 25.717033,25.717033 0 0 0 5.02004,-15.15606 25.717033,25.717033 0 0 0 -3.12324,-12.22158 25.717033,25.717033 0 0 0 12.21685,3.12797 25.717033,25.717033 0 0 0 15.22256,-4.99263 25.717033,25.717033 0 0 0 -7.23366,-14.29429 25.717033,25.717033 0 0 0 -10.80858,-6.44433 25.717033,25.717033 0 0 0 10.80858,-6.41599 25.717033,25.717033 0 0 0 7.23366,-14.2943 25.717033,25.717033 0 0 0 -15.22256,-4.99264 25.717033,25.717033 0 0 0 -12.2284,3.1348 25.717033,25.717033 0 0 0 3.13479,-12.2284 25.717033,25.717033 0 0 0 -4.95249,-15.16589 z m -20.76459,25.52871 a 24.447838,24.447838 0 0 1 24.44787,24.44788 24.447838,24.447838 0 0 1 -24.44787,24.44787 24.447838,24.447838 0 0 1 -24.447755,-24.44787 24.447838,24.447838 0 0 1 24.447755,-24.44788 z" />
    <path
       id="rect50"
       style="stroke-width:1.18215;stroke-linecap:round;stroke-linejoin:round;paint-order:markers stroke fill"
       d="m 444.57249,-587.28509 c -3.03854,3.03855 -3.03846,7.93089 9e-5,10.96944 l 31.37249,31.37249 -31.37258,31.37257 c -3.03854,3.03855 -3.03846,7.9309 9e-5,10.96944 l 5.3791,5.3791 c 3.03854,3.03854 7.9308,3.03854 10.96935,0 l 31.37257,-31.37258 31.37258,31.37258 c 3.03854,3.03854 7.93081,3.03854 10.96935,0 l 5.3791,-5.3791 c 3.03854,-3.03854 3.03863,-7.93089 9e-5,-10.96943 l -31.37258,-31.37258 31.37258,-31.37258 c 3.03854,-3.03854 3.03854,-7.9308 0,-10.96935 l -5.3791,-5.3791 c -3.03855,-3.03854 -7.9309,-3.03863 -10.96944,-9e-5 l -31.37258,31.37258 -31.37249,-31.37249 c -3.03854,-3.03854 -7.93098,-3.03854 -10.96952,0 z" />
    <path
       sodipodi:type="spiral"
       style="fill:#000000;fill-opacity:1;fill-rule:evenodd;stroke:#000000;stroke-width:0.264583"
       id="path52"
       sodipodi:cx="-2008.6161"
       sodipodi:cy="1501.0464"
       sodipodi:expansion="1"
       sodipodi:revolution="5"
       sodipodi:radius="2796.085"
       sodipodi:argument="-18.106924"
       sodipodi:t0="0"
       d="m -2008.6161,1501.0464 c 33.8038,31.0294 5.0982,80.1543 -28.9218,95.5802 -20.7473,9.4077 -43.2803,11.3784 -65.6179,7.4124 -131.2629,-23.306 -159.2927,-188.9605 -111.4455,-292.072 85.5875,-184.4424 326.987,-215.9507 489.6043,-119.8984 238.6476,140.9608 274.1917,466.851 128.3512,687.1366 -194.3823,293.6061 -607.3627,333.1012 -884.6688,136.8041 -351.8552,-249.0683 -394.4796,-745.3107 -145.257,-1082.20114 301.7868,-407.94476 885.7922,-454.39071 1279.7334,-153.70985 464.16667,354.28129 514.42556,1026.38679 162.1628,1477.26569 -406.6371,520.4754 -1167.0568,574.5428 -1674.798,170.6156 -576.8441,-458.9011 -634.7178,-1307.7795 -179.0685,-1872.33025 511.1012,-633.255831 1448.5409,-694.93464 2069.86256,-187.52137 689.69941,563.25519 755.18283,1589.33132 195.97425,2267.39482 -615.37471,746.1673 -1730.14401,815.4551 -2464.92711,204.4272 -804.9447,-669.3726 -877.734,-1868.60085 -212.88,-2662.45947 721.5992,-861.61445 2009.2772,-938.19399 2859.99167,-221.332886 918.29616,773.809326 998.66614,2149.965256 229.78577,3057.524056 -444.88879,525.1307 -1121.61574,820.311 -1808.61244,798.5385 -529.3527,-16.7764 -1043.3281,-217.1602 -1446.4439,-560.2999 -556.2128,-473.4588 -868.1402,-1192.1938 -843.4662,-1921.3043 18.9776,-560.78443 232.339,-1104.948 596.7747,-1531.28429 502.0262,-587.29693 1262.7717,-915.97231 2033.9962,-888.39391 592.2162,21.1772 1166.56873,247.51652 1616.12469,633.24951 C 406.02097,74.778886 751.44518,877.53673 720.95988,1690.8754 697.5845,2314.5234 458.26681,2919.0656 51.235568,3391.8405"
       transform="matrix(0.01929123,0,0,0.01929123,333.53902,-756.95512)" />
    <path
       id="path55"
       style="fill:#000000;fill-opacity:1;stroke:none;stroke-width:0.872024;stroke-linecap:round;stroke-linejoin:round;stroke-dasharray:none;stroke-opacity:1;paint-order:markers stroke fill"
       d="m 422.60444,-754.26539 15.01823,10.87304 14.98182,10.92324 -5.70005,17.64308 -5.75899,17.62395 -18.54101,0.031 -18.541,-0.031 -5.7589,-17.62395 -5.70005,-17.64317 14.98182,-10.92315 z m 0,-19.03148 -25.03035,18.12169 -24.9696,18.2054 9.49996,29.40521 9.59834,29.37329 30.90165,0.0517 30.90176,-0.0517 9.59833,-29.37329 9.49996,-29.40521 -24.9696,-18.2054 z" />
    <path
       id="path60"
       style="color:#000000;fill:#000000;fill-opacity:1;stroke-width:0.459288;stroke-linecap:square;-inkscape-stroke:none;paint-order:markers stroke fill"
       d="m 540.87624,-847.72479 11.53603,19.98172 11.53602,19.98084 h -23.07205 -23.07205 l 11.53602,-19.98084 z m -6.1e-4,-28.9253 -24.99908,43.3014 -25.00031,43.3003 h 49.99939 50.00061 l -25.00031,-43.3003 z" />
  </g>
</svg>
